<svg xmlns="http://www.w3.org/2000/svg" xmlns:xlink="http://www.w3.org/1999/xlink" viewBox="0 0 121.94 131.68"><defs><style>.cls-1{fill:url(#Degradado_sin_nombre_9);}.cls-2{fill:none;stroke:#999;stroke-width:0.51px;}.cls-2,.cls-5{stroke-miterlimit:10;}.cls-3{opacity:0.7;fill:url(#Degradado_sin_nombre_18);}.cls-4,.cls-5{fill:#fff;}.cls-4{opacity:0.61;}.cls-5{stroke:#29abe2;stroke-width:0.3px;}.cls-6{fill:url(#Degradado_sin_nombre_18-2);}.cls-7{fill:#29abe2;}.cls-8{fill:url(#Degradado_sin_nombre_19);}</style><linearGradient id="Degradado_sin_nombre_9" y1="58.35" x2="119.9" y2="58.35" gradientUnits="userSpaceOnUse"><stop offset="0" stop-color="#f0f"/><stop offset="1" stop-color="#0071bc"/></linearGradient><linearGradient id="Degradado_sin_nombre_18" x1="4.16" y1="71.58" x2="120.3" y2="71.58" gradientUnits="userSpaceOnUse"><stop offset="0" stop-color="#7ac943"/><stop offset="1" stop-color="#00b7bf"/></linearGradient><linearGradient id="Degradado_sin_nombre_18-2" x1="22.13" y1="53.78" x2="41.3" y2="53.78" xlink:href="#Degradado_sin_nombre_18"/><linearGradient id="Degradado_sin_nombre_19" x1="37.71" y1="61.16" x2="71.04" y2="61.16" gradientUnits="userSpaceOnUse"><stop offset="0" stop-color="#00b7bf"/><stop offset="1" stop-color="#7ac943"/></linearGradient></defs><title>logo-wateke</title><g id="Capa_2" data-name="Capa 2"><g id="Capa_1-2" data-name="Capa 1"><path class="cls-1" d="M22.56,116.36l14.15-2.7,19.49-3.71,48.25-9.2a19,19,0,0,0,10.82-31L72.56,20.22,60.8,6.59a19,19,0,0,0-32.29,6.16L22.06,31.26l-21,60.21a18.79,18.79,0,0,0,3.55,18.65,18.79,18.79,0,0,0,17.92,6.24Z"/><path class="cls-2" d="M39.59,128l12.62-8.14,17.38-11.21,43-27.75a19.79,19.79,0,0,0-1.68-34.23L50.33,15.58,33.64,7A19.78,19.78,0,0,0,4.84,25.58L5.85,46l3.26,66.38A19.74,19.74,0,0,0,39.59,128Z"/><path class="cls-3" d="M49.24,127.29l11.09-9.19,15.27-12.66,37.82-31.34a19,19,0,0,0-5.51-32.41L46.63,19,29.75,12.69a19,19,0,0,0-25.31,21L7.73,53l10.69,62.86a18.94,18.94,0,0,0,30.82,11.43Z"/><path class="cls-4" d="M106,49.16,53.15,18.64,38.59,10.24A17.72,17.72,0,0,0,12,25.59v77.85a17.69,17.69,0,0,0,26.59,15.35l11.65-6.73,16-9.26L106,79.86a17.73,17.73,0,0,0,0-30.7ZM29.29,22.09a14.26,14.26,0,0,0-1.39.49l.07,0A3.72,3.72,0,0,1,29.29,22.09Z"/><path class="cls-5" d="M99.23,51.61,54.79,26,42.55,18.88A14.9,14.9,0,0,0,20.2,31.79V97.24a14.87,14.87,0,0,0,22.35,12.91l9.8-5.66L65.83,96.7l33.4-19.28a14.9,14.9,0,0,0,0-25.81Z"/><path class="cls-6" d="M41.3,64,33.58,37.57a24.74,24.74,0,0,0-2.21-5.7q-1-1.67-4-1.67a5.07,5.07,0,0,0-3.73,1.52,4.73,4.73,0,0,0-1.52,3.43,20.07,20.07,0,0,0,1.43,5.51L33.15,69q.39,1.13,1.08,3.06a16.27,16.27,0,0,0,1.6,3.34,6.46,6.46,0,0,0,1.91,1.94Z"/><path class="cls-7" d="M86.34,52.19A4.86,4.86,0,0,0,83,51a4.24,4.24,0,0,0-4.34,2.66q-.43,1.05-1.12,3.41l-7,21.77,0,0-3.46,11a6.17,6.17,0,0,0,3.4.86,5.84,5.84,0,0,0,3.66-1,6.47,6.47,0,0,0,2-2.36q.62-1.32,1.74-4.28l8.64-23.34A13.91,13.91,0,0,0,87.74,55,3.68,3.68,0,0,0,86.34,52.19Z"/><path class="cls-8" d="M64,46.33q-1.08-3.69-1.69-5.18a7.32,7.32,0,0,0-2.1-2.78,6.18,6.18,0,0,0-4.14-1.28A6.11,6.11,0,0,0,52,38.37a6.86,6.86,0,0,0-2,2.69q-.54,1.41-1.67,5.27L41.9,68.68,37.71,84.24c.12.08.24.16.36.23a6.75,6.75,0,0,0,3.32.76q3.82,0,5.34-2.45a28.31,28.31,0,0,0,2.82-7.26L56.1,52.45l6.77,23.07q.87,3.12,1.6,5.07a8.1,8.1,0,0,0,2.28,3.3,4.79,4.79,0,0,0,.43.3L71,70.86Z"/></g></g></svg>