<svg xmlns="http://www.w3.org/2000/svg" width="343.806" height="476.295" viewBox="0 0 343.806 476.295">
  <g id="logo-modal" transform="translate(0.057 0.035)">
    <g id="Layer_1-2" transform="translate(-0.057 -0.035)">
      <path id="Path_176" data-name="Path 176" d="M101.138,94.655a23.319,23.319,0,1,0-23.455,23.183h0a23.222,23.222,0,0,0,23.455-23.183" transform="translate(94.297 123.084)" fill="#f37164"/>
      <path id="Path_177" data-name="Path 177" d="M56.282,125.219l6-11.455L54.1,112.4Z" transform="translate(93.606 194.252)" fill="#333"/>
      <path id="Path_178" data-name="Path 178" d="M120.173,61.609c2.455-.273,3.818-2.455,3.546-4.909l-1.091-6L113.9,52.336l1.091,6a4.309,4.309,0,0,0,5.182,3.273" transform="translate(196.903 87.673)" fill="#333"/>
      <path id="Path_179" data-name="Path 179" d="M93.4,106.482l10.909,6.818-4.364-12Z" transform="translate(161.492 175.078)" fill="#333"/>
      <path id="Path_180" data-name="Path 180" d="M21.255,38.009a4.309,4.309,0,0,0-5.727,1.636L12.8,45.1l7.909,3.818,2.727-5.455c1.091-1.909,0-4.364-2.182-5.455" transform="translate(22.265 64.908)" fill="#333"/>
      <path id="Path_181" data-name="Path 181" d="M257.835,22.97c-82.094-47.456-187.371-19.092-234.827,63S3.644,273.343,86.01,320.8s187.371,19.364,234.827-63a172.182,172.182,0,0,0-63-234.827m68.184,120.277a9.954,9.954,0,0,1-7.909,11.728h0a9.386,9.386,0,0,1-9.819-4.091l-9.819,8.728-1.091-6.273,9-7.909-.818-4.364L295.2,142.975l-1.091-5.727,29.456-5.727ZM245.834,60.608l5.727.818a6.515,6.515,0,0,0,2.727,7.909c2.727,2.182,4.637,1.909,5.727.545a3.359,3.359,0,0,0,.545-2.727,25.9,25.9,0,0,0-2.727-4.637,25.663,25.663,0,0,1-3.273-6,6.984,6.984,0,0,1,1.636-6.546,7.5,7.5,0,0,1,6-3.273,11.774,11.774,0,0,1,7.091,2.455,11.308,11.308,0,0,1,4.364,12l-5.727-1.091a5.571,5.571,0,0,0-2.182-6.546c-1.909-1.364-3.818-1.364-4.909,0a2.782,2.782,0,0,0-.545,2.455,12.591,12.591,0,0,0,2.455,4.091l1.091,1.909c.273.545.818,1.091,1.091,1.636a4.073,4.073,0,0,1,.818,1.909,8.668,8.668,0,0,1,.545,3.818,7.272,7.272,0,0,1-1.909,3.818,7.776,7.776,0,0,1-6.546,3.273A13.033,13.033,0,0,1,250.2,73.7a12.369,12.369,0,0,1-4.364-13.091m-33.547-39.82,17.455,5.727-1.636,5.455-11.728-3.818-1.909,6,10.91,3.546-1.636,5.182-10.91-3.546-2.182,6.273,12,3.818-1.636,5.455-18-5.727Zm-53.729-4.364,1.091,19.637c.273,3,1.909,4.909,5.727,4.909s5.455-2.182,5.182-5.455l-1.091-19.637,6-.273,1.091,20.183a9.844,9.844,0,0,1-2.727,7.637,13.144,13.144,0,0,1-16.364.818,10.026,10.026,0,0,1-3.546-7.364L152.831,16.7ZM99.374,33.88l19.364,11.182-7.909-16.637,5.455-2.455,12.819,27-4.091,1.909L105.647,43.7l7.909,16.637L108.1,62.79l-12.546-27ZM68.555,67.972a5.932,5.932,0,0,1,8.182,0,6.354,6.354,0,0,1,1.909,4.091,5.551,5.551,0,0,1-1.636,4.091,5.466,5.466,0,0,1-8.182,0h0a5.551,5.551,0,0,1-1.636-4.091c-.545-1.364.273-3,1.364-4.091M32.827,102.337A10.049,10.049,0,0,1,46.191,97.7h0a9.649,9.649,0,0,1,5.455,9l13.091-1.091-2.727,5.727-12,.818L48.1,116.247l9.273,4.637-2.727,5.455-27-13.091ZM18.1,147.884l5.727.545L22.735,160.7l6.273.545L30.1,150.066l5.455.545-1.091,11.455,6.818.545,1.091-12.546,5.727.545-1.636,18.546-30-2.727Zm10.91,75.821a14.528,14.528,0,0,1-7.364-9.546A14.965,14.965,0,0,1,24.917,199.7l4.364,4.091a8.522,8.522,0,0,0-1.909,8.728,9.2,9.2,0,0,0,4.637,6,10.615,10.615,0,0,0,7.637.545,9.2,9.2,0,0,0,6-4.637,8.379,8.379,0,0,0,.545-7.637,9.08,9.08,0,0,0-6.273-6.273l1.364-5.727a14.727,14.727,0,0,1,10.364,10.364,15.245,15.245,0,0,1-10.091,19.092c-.273,0-.545,0-.545.273a14.294,14.294,0,0,1-12-.818m25.365,50.456L43.191,259.706l4.364-3.546,7.637,9.819,4.909-4.091-6.818-9,4.364-3.546,6.818,9,5.455-4.091L62.282,244.16l4.364-3.546L78.1,255.343Zm47.456,37.365-3.818-2.182L96.374,286.98l-9.546,15.546-4.909-3,15.546-25.637,3.818,2.455,1.364,22.364,9.546-15.819,5.182,3ZM152.558,326.8l-7.364-1.091-6-31.365,6.273,1.091.818,5.727,11.728,1.909,2.727-5.182,6.273.818Zm68.73-6.273-12-11.455-4.637,15.819-6,1.636-7.637-29.183,5.727-1.636,4.909,18.819,4.637-15.546.545-.273,11.728,11.182-4.909-18.819,5.727-1.636,7.637,28.91Zm46.093-24.546-27-16.91,4.909-4.091,4.909,3.273,9.273-7.364-1.909-5.455,4.909-4.091,10.637,30Zm10.909-193.1,20.455-12.819-4.364-6.818,4.909-3,11.728,18.819-4.909,3-4.364-6.818-20.728,12.819Zm18.546,147.824a6.075,6.075,0,0,1-8.182,1.909h0a5.639,5.639,0,0,1-2.727-3.818,5.993,5.993,0,0,1,9-6.273h0a5.356,5.356,0,0,1,2.455,3.546,8.755,8.755,0,0,1-.545,4.637M319.2,213.614a13.9,13.9,0,0,1-11.728,2.182,15.778,15.778,0,0,1-12-18.546c1.636-8.455,10.091-13.637,18.546-12s13.637,10.091,12,18.546a16.7,16.7,0,0,1-6.818,9.819" transform="translate(0.057 0.035)" fill="#333"/>
      <path id="Path_182" data-name="Path 182" d="M122.182,70.162a9.73,9.73,0,0,0-7.637,1.364,9.962,9.962,0,0,0-2.727,13.637,10.347,10.347,0,0,0,13.91,2.727,9.736,9.736,0,0,0-3.546-17.728" transform="translate(190.53 120.85)" fill="#333"/>
      <path id="Path_183" data-name="Path 183" d="M53.173,44.038,45.264,27.4,64.628,38.583l4.091-1.909L55.9,9.4l-5.182,2.727,7.637,16.637L38.991,17.582,34.9,19.491l12.819,27Z" transform="translate(60.44 16.333)" fill="#fff"/>
      <path id="Path_184" data-name="Path 184" d="M60.637,34.337A13.526,13.526,0,0,0,77,33.519a9.844,9.844,0,0,0,2.727-7.637L78.637,5.7l-6,.273L74,25.61c.273,3-1.364,5.182-5.182,5.455s-5.727-1.636-5.727-4.909L61.727,6.518,56,6.791l1.091,20.183a10.026,10.026,0,0,0,3.546,7.364" transform="translate(96.888 9.941)" fill="#fff"/>
      <path id="Path_185" data-name="Path 185" d="M94.037,36.51,81.764,32.419l2.182-6.273,10.91,3.546,1.636-5.455-10.91-3.546,2.182-6,11.728,3.818,1.636-5.455L83.673,7.6,74.4,35.965l17.728,5.727Z" transform="translate(128.671 13.223)" fill="#fff"/>
      <path id="Path_186" data-name="Path 186" d="M95.1,44.274a11.721,11.721,0,0,0,7.637,3A9,9,0,0,0,109.287,44a6.9,6.9,0,0,0,1.636-4.091,9.283,9.283,0,0,0-.545-3.818c-.273-.545-.545-1.364-.818-1.909a5.705,5.705,0,0,0-1.091-1.636l-1.091-1.909a13.832,13.832,0,0,1-2.455-4.364,2.616,2.616,0,0,1,.545-2.455c1.091-1.364,3-1.364,4.909,0a6.109,6.109,0,0,1,2.182,6.546l5.727.818a11.476,11.476,0,0,0-4.364-12A12.157,12.157,0,0,0,106.832,17a8.006,8.006,0,0,0-6.273,3.273,7.356,7.356,0,0,0-1.636,6.546,18.5,18.5,0,0,0,3.273,6,25.9,25.9,0,0,1,2.727,4.637,3.227,3.227,0,0,1-.273,2.727c-1.091,1.364-3.273,1.636-5.727-.545A6.515,6.515,0,0,1,96.2,31.728l-5.727-.818A11.515,11.515,0,0,0,95.1,44.274" transform="translate(155.423 29.461)" fill="#fff"/>
      <path id="Path_187" data-name="Path 187" d="M129.992,50.946l4.909-3L123.174,29.4l-4.909,3,4.364,6.818L101.9,52.037l3.273,4.909L125.9,44.128Z" transform="translate(176.174 50.88)" fill="#fff"/>
      <path id="Path_188" data-name="Path 188" d="M108.818,59.655l10.364-1.909L120,62.11l-9,7.909,1.091,6.273,9.819-8.728a10.4,10.4,0,0,0,9.819,4.091,9.954,9.954,0,0,0,7.909-11.728h0L137.456,48.2,108,53.927Zm24-4.637,1.091,6a4.347,4.347,0,0,1-3.818,4.909,4.487,4.487,0,0,1-4.909-3.273l-1.091-6Z" transform="translate(186.711 83.355)" fill="#fff"/>
      <path id="Path_189" data-name="Path 189" d="M137.51,74.773a14.229,14.229,0,0,0-10.091-6.546A15.645,15.645,0,0,0,119.51,98.5c.545,0,1.091.273,1.636.273A15.962,15.962,0,0,0,139.692,86.5a16.127,16.127,0,0,0-2.182-11.728M133.965,85.41a9.875,9.875,0,0,1-4.091,6.273,10.347,10.347,0,0,1-13.91-2.727,9.962,9.962,0,0,1,2.727-13.637,10.347,10.347,0,0,1,13.91,2.727,9.826,9.826,0,0,1,1.364,7.364" transform="translate(186.384 117.057)" fill="#fff"/>
      <path id="Path_190" data-name="Path 190" d="M113.865,89.483a6.06,6.06,0,0,0-8.182,1.636h0a6.322,6.322,0,0,0-.818,4.364,5.639,5.639,0,0,0,2.727,3.818,5.813,5.813,0,0,0,8.182-1.636v-.273a6.8,6.8,0,0,0,.818-4.637,5.118,5.118,0,0,0-2.727-3.273" transform="translate(181.119 153.076)" fill="#fff"/>
      <path id="Path_191" data-name="Path 191" d="M105.182,99.891l1.909,5.455-9.273,7.364-4.909-3L88,113.8l27,16.637,5.727-4.637-10.637-30Zm-2.455,16.091L109,110.8l4.364,12Z" transform="translate(152.164 165.578)" fill="#fff"/>
      <path id="Path_192" data-name="Path 192" d="M92.637,107.664l4.909,18.819L85.819,115.3h-.545l-4.637,15.819L75.727,112.3,70,113.664l7.637,29.183,6-1.636,4.637-15.819,12,11.455L106,135.21,98.365,106.3Z" transform="translate(121.071 183.715)" fill="#fff"/>
      <path id="Path_193" data-name="Path 193" d="M70.019,116.528l-11.728-1.909-.818-5.727L51.2,107.8l6,31.365,7.364,1.091,15-28.092-6.546-1.091Zm-8.728,16.637-2.182-12.819,8.182,1.364Z" transform="translate(88.596 186.306)" fill="#fff"/>
      <path id="Path_194" data-name="Path 194" d="M50.728,125.119l-1.364-22.365L45.546,100.3,30,126.21l4.909,3,9.546-15.819,1.636,22.364,3.818,2.455,15.546-25.637L60.274,109.3Z" transform="translate(51.976 173.351)" fill="#fff"/>
      <path id="Path_195" data-name="Path 195" d="M34.892,91.946l7.637,9.819-5.182,4.091-7.091-9L25.891,100.4l6.818,9L27.8,113.219,20.164,103.4,15.8,106.946,26.982,121.4,50.71,103.128,39.255,88.4Z" transform="translate(27.447 152.795)" fill="#fff"/>
      <path id="Path_196" data-name="Path 196" d="M37.17,93.864a14.187,14.187,0,0,0,1.091-12A14.727,14.727,0,0,0,27.9,71.5l-1.364,5.727A9.08,9.08,0,0,1,32.806,83.5a10.616,10.616,0,0,1-.545,7.637,11.3,11.3,0,0,1-6,4.637,10.616,10.616,0,0,1-7.637-.545,10.135,10.135,0,0,1-4.637-6A8.649,8.649,0,0,1,15.9,80.5l-4.364-4.091A15.34,15.34,0,0,0,8.26,90.864a15.132,15.132,0,0,0,18.546,10.91,1,1,0,0,0,.818-.273,17.741,17.741,0,0,0,9.546-7.637" transform="translate(13.441 123.603)" fill="#fff"/>
      <path id="Path_197" data-name="Path 197" d="M37.365,56.655l-5.455-.545L30.819,68.655,24,68.11l1.091-11.455-5.727-.273-.818,11.182L12,67.019l1.091-12.546L7.636,54.2,6,72.473,35.728,75.2Z" transform="translate(10.519 93.719)" fill="#fff"/>
      <path id="Path_198" data-name="Path 198" d="M39.556,59.549l-9.273-4.637,1.909-4.091,12-.818,2.727-5.727L33.828,45.367a9.649,9.649,0,0,0-5.455-9A9.975,9.975,0,0,0,15.282,41L10.1,51.913,37.1,65ZM28.373,47.276l-2.727,5.455-7.909-3.818,2.727-5.455a4.172,4.172,0,0,1,6-1.636,4.241,4.241,0,0,1,1.909,5.455" transform="translate(17.601 61.369)" fill="#fff"/>
      <path id="Path_199" data-name="Path 199" d="M30.434,35.855a5.593,5.593,0,0,0,5.727-5.727,4.907,4.907,0,0,0-1.909-4.091,5.932,5.932,0,0,0-8.182,0,4.981,4.981,0,0,0-1.636,4.091,5.551,5.551,0,0,0,1.636,4.091c1.364,1.091,2.727,1.909,4.364,1.636" transform="translate(42.269 42.243)" fill="#fff"/>
      <path id="Path_200" data-name="Path 200" d="M38.41,115.638H220.325A105.073,105.073,0,0,0,234.508,63H24.5a107.668,107.668,0,0,0,13.91,52.638" transform="translate(42.475 108.92)" fill="#d36b8d"/>
      <path id="Path_201" data-name="Path 201" d="M120.694,134.838A104.81,104.81,0,0,0,211.789,82.2H29.6a104.81,104.81,0,0,0,91.094,52.638" transform="translate(51.285 142.086)" fill="#143a55"/>
      <path id="Path_202" data-name="Path 202" d="M38.582,43.7A105.073,105.073,0,0,0,24.4,96.338H234.408A105.073,105.073,0,0,0,220.225,43.7Z" transform="translate(42.303 75.582)" fill="#f37164"/>
      <path id="Path_203" data-name="Path 203" d="M120.694,24.5A104.81,104.81,0,0,0,29.6,77.138H211.516A104.046,104.046,0,0,0,120.694,24.5" transform="translate(51.285 42.416)" fill="#eee3d3"/>
      <g id="Group_181" data-name="Group 181" transform="translate(60.43 377.019)">
        <path id="Path_204" data-name="Path 204" d="M22.1,142.1H35.464l9.273,20.455,9-20.455H67.1v38.456H56.192V160.1l-9,20.455H42.283l-9-20.455v20.455H22.373V142.1Z" transform="translate(-22.1 -131.463)" fill="#fff"/>
        <path id="Path_205" data-name="Path 205" d="M41.3,148.837H67.756v9.273H53.028v5.182H67.483v9H53.028v5.727H67.756v9.273H41.3ZM53.846,138.2H64.483l-6,8.182H48.937Z" transform="translate(11.066 -138.2)" fill="#fff"/>
        <path id="Path_206" data-name="Path 206" d="M74.674,180.556l-9.546-14.728v14.728H53.4V142.1h18c6.273,0,10.091,2.182,12,6a13.126,13.126,0,0,1,1.091,6,13.874,13.874,0,0,1-1.091,6,9.055,9.055,0,0,1-6.273,5.455l10.637,15.273-13.091-.273Zm-9.546-30.274v7.909h2.727c2.182,0,3.546-.545,4.364-1.909a4.636,4.636,0,0,0,0-4.364c-.545-1.364-2.182-1.636-4.091-1.636Z" transform="translate(31.967 -131.463)" fill="#fff"/>
        <path id="Path_207" data-name="Path 207" d="M67.5,142.1H79.228v38.456H67.5Z" transform="translate(56.323 -131.463)" fill="#fff"/>
      </g>
      <g id="Group_182" data-name="Group 182" transform="translate(203.617 387.655)">
        <path id="Path_208" data-name="Path 208" d="M74.6,142.1H91.782c8.728,0,14.455,3.546,17.182,9.546a24.943,24.943,0,0,1,1.636,9.546,24,24,0,0,1-1.636,9.546c-2.727,6-8.728,9.546-17.182,9.546H74.6Zm15.273,28.365c4.091,0,6.546-1.364,7.637-4.091a18.591,18.591,0,0,0,0-10.909c-1.091-2.727-3.546-4.091-7.637-4.091H86.055v18.819h3.818Z" transform="translate(-74.6 -142.1)" fill="#fff"/>
      </g>
      <g id="Group_183" data-name="Group 183" transform="translate(241.8 387.383)">
        <path id="Path_209" data-name="Path 209" d="M116.419,174.183H102.51l-1.909,6.273h-12L100.873,142h17.455L130.6,180.456h-12Zm-2.727-8.455-4.364-15h0l-4.364,15Z" transform="translate(-88.6 -142)" fill="#fff"/>
      </g>
      <g id="Group_184" data-name="Group 184" transform="translate(102.159 435.657)">
        <path id="Path_210" data-name="Path 210" d="M37.4,198.974l16.092-19.637c2.727-3.273,3.818-5.182,3.818-7.091a2.044,2.044,0,0,0-.273-1.364c-.545-1.364-1.636-1.909-3.273-1.909a3.415,3.415,0,0,0-3.546,2.182,6.952,6.952,0,0,0-.545,3.546H38.491a18.668,18.668,0,0,1,1.364-7.364c2.455-5.182,7.364-7.637,14.182-7.637s12,2.455,14.182,7.364a16.138,16.138,0,0,1,1.091,5.455,12.556,12.556,0,0,1-3.546,9,115.14,115.14,0,0,1-8.182,8.182H69.856v9.819L37.4,198.974Z" transform="translate(-37.4 -159.7)" fill="#fff"/>
      </g>
      <g id="Group_185" data-name="Group 185" transform="translate(139.524 435.384)">
        <path id="Path_211" data-name="Path 211" d="M53.009,191.51c-1.364-3-1.909-6.546-1.909-11.455s.545-8.455,1.909-11.455c2.455-6,7.909-9,15.273-9s12.819,3,15.273,9c1.364,3,1.909,6.546,1.909,11.455s-.545,8.455-1.909,11.455c-2.455,6-7.909,9-15.273,9S55.737,197.51,53.009,191.51Zm19.91-3.273c.545-1.364.545-3.546.545-8.182s0-6.818-.545-8.182a4.371,4.371,0,0,0-4.364-2.455c-2.455,0-3.818.818-4.637,2.455-.545,1.364-.545,3.546-.545,8.182s0,6.818.545,8.182c.818,1.636,2.182,2.455,4.637,2.455A4.824,4.824,0,0,0,72.919,188.237Z" transform="translate(-51.1 -159.6)" fill="#fff"/>
      </g>
      <g id="Group_186" data-name="Group 186" transform="translate(178.252 436.475)">
        <path id="Path_212" data-name="Path 212" d="M71.846,170.364H65.3L67.209,160H83.028v38.456H71.573l.273-28.092Z" transform="translate(-65.3 -160)" fill="#fff"/>
      </g>
      <g id="Group_187" data-name="Group 187" transform="translate(203.071 435.657)">
        <path id="Path_213" data-name="Path 213" d="M108.492,179.337a28.585,28.585,0,0,1-2.182,11.455c-2.727,6-7.909,9.273-15.819,9.273-5.182,0-9.273-1.364-12.273-4.364a12.576,12.576,0,0,1-3.546-7.091H85.855a4.4,4.4,0,0,0,1.091,1.909,5.4,5.4,0,0,0,3.818,1.364,5.336,5.336,0,0,0,5.455-3.546,12.65,12.65,0,0,0,1.091-5.728c-2.182,2.455-5.455,3.818-9.819,3.818-5.727,0-10.091-2.182-12-6.273a13.874,13.874,0,0,1-1.091-6,16.178,16.178,0,0,1,1.364-6.273c2.455-5.455,8.182-8.182,15.273-8.182,8.455,0,13.364,3.273,16.092,9A37.367,37.367,0,0,1,108.492,179.337Zm-12.819-6a6.514,6.514,0,0,0-.545-2.455,4.371,4.371,0,0,0-4.364-2.455c-2.182,0-3.818.818-4.364,2.455a7.091,7.091,0,0,0,0,5.455,4.371,4.371,0,0,0,4.364,2.455c2.182,0,3.818-.818,4.637-2.455A11.188,11.188,0,0,0,95.674,173.337Z" transform="translate(-74.4 -159.7)" fill="#fff"/>
      </g>
    </g>
  </g>
</svg>
