<svg xmlns="http://www.w3.org/2000/svg" xmlns:xlink="http://www.w3.org/1999/xlink" viewBox="0 0 2134.72 771.33"><defs><style>.cls-1{fill:#00fece;}.cls-2{fill:url(#linear-gradient);}.cls-3{fill:url(#linear-gradient-2);}.cls-4{fill:#fff;}.cls-5{fill:#383838;fill-rule:evenodd;}</style><linearGradient id="linear-gradient" y1="205.61" x2="695.41" y2="205.61" gradientUnits="userSpaceOnUse"><stop offset="0" stop-color="#15a7f3"/><stop offset="1" stop-color="#00fece"/></linearGradient><linearGradient id="linear-gradient-2" y1="503.36" x2="695.41" y2="503.36" xlink:href="#linear-gradient"/></defs><title>logo letras gris</title><g id="Capa_2" data-name="Capa 2"><g id="Capa_1-2" data-name="Capa 1"><path class="cls-1" d="M2104.08,481.89a18,18,0,0,1-5-12.62,17.25,17.25,0,0,1,17.67-17.67,18,18,0,0,1,12.62,5,17.49,17.49,0,0,1,5.41,12.62,18.48,18.48,0,0,1-18,18A17.49,17.49,0,0,1,2104.08,481.89Z"/><path class="cls-2" d="M167.55,145.22c4.8-13.44,14.4-25,28.81-29.77a38.53,38.53,0,0,1,14.4-2.88h10.56a.94.94,0,0,0,1,1h1.92c1,0,1,0,1.92,1h1.92c1,1,1,1,1.92,1a45.31,45.31,0,0,1,27.85,29.77l99.87,266L442.09,187l-10.26-5.93L154.4,20.89C130.93,7.35,108.67.64,88.7,0,36.4-1.52,0,39.07,0,110V231.4L67.68,411.23Z"/><path class="cls-3" d="M631.78,296.5,525.92,235.39,403.8,561c-7.68,18.25-25.93,31.69-46.1,31.69A47.64,47.64,0,0,1,312.56,561L212.69,295,113.77,561c-7.68,18.25-25.93,31.69-46.1,31.69A47.64,47.64,0,0,1,22.54,561L0,500.93V661.27c0,27.41,5.43,50.28,15.12,68,24.94,45.55,78.09,56.51,139.28,21.19l128.25-74L317,656.52l40.13-23.17,246-142c31.17-18,62.07-33,80.77-65.08,7.66-13.13,11.46-26.85,11.47-40.57C695.42,353.35,674.25,321,631.78,296.5Z"/><path class="cls-4" d="M67.68,592.73c20.17,0,38.41-13.44,46.1-31.69l98.92-266,99.87,266a47.64,47.64,0,0,0,45.14,31.69c20.17,0,38.41-13.44,46.1-31.69L525.92,235.39,442.09,187,357.7,411.23l-99.87-266A45.31,45.31,0,0,0,230,115.44c-1,0-1,0-1.92-1h-1.92c-1-1-1-1-1.92-1h-1.92a.94.94,0,0,1-1-1H210.77a38.53,38.53,0,0,0-14.4,2.88c-14.4,4.8-24,16.33-28.81,29.77l-99.88,266L0,231.4V500.93L22.54,561A47.64,47.64,0,0,0,67.68,592.73Z"/><path class="cls-5" d="M1067.56,297.47a18.8,18.8,0,0,0-24.47,11.09l-40.15,106.67L963.19,309.33a18,18,0,0,0-11.09-11.85c-.38,0-.38,0-.76-.38h-.76c-.38-.38-.38-.38-.76-.38H949a.37.37,0,0,1-.38-.38h-4.21a15.34,15.34,0,0,0-5.73,1.15c-5.73,1.91-9.56,6.5-11.47,11.85L887.49,415.23,847.34,308.56a18.39,18.39,0,0,0-24.09-11.09,18.66,18.66,0,0,0-11.09,24.47l57.35,152.93a19,19,0,0,0,18,12.62c8,0,15.29-5.35,18.35-12.62L945.22,369,985,474.87a19,19,0,0,0,18,12.62c8,0,15.29-5.35,18.35-12.62l57.35-152.93C1082.09,312,1077.12,300.91,1067.56,297.47Z"/><path class="cls-5" d="M1276.6,488.4c10.42,0,18-7.54,18-18V400c0-50.65-37.72-90.88-88.36-90.88A90.3,90.3,0,0,0,1115.32,400c0,50.65,40.23,88.36,90.88,88.36,20.47,0,37.72-5,53.16-18C1259.36,480.85,1269.42,488.4,1276.6,488.4Zm-70.4-35.2c-30.17,0-55.68-23-55.68-53.16s25.5-55.68,55.68-55.68,53.16,25.5,53.16,55.68S1236.37,453.2,1206.2,453.2Z"/><path class="cls-5" d="M1348.67,344.23h25.78V470.6c0,9.67,7.88,17.9,17.54,17.9a18,18,0,0,0,17.9-17.9V344.23h25.42a18,18,0,0,0,17.9-17.9,17.65,17.65,0,0,0-17.9-17.54h-25.42v-71.6a17.72,17.72,0,0,0-35.44,0v71.6h-25.78a17.57,17.57,0,0,0-17.54,17.54C1331.13,336,1339,344.23,1348.67,344.23Z"/><path class="cls-5" d="M1634.24,472.86c8.21-5.36,12.85-14.64,8.57-23.57-4.28-8.57-15.35-13.57-23.57-8.21-17.14,11.07-31.78,11.78-40,11.78a54.43,54.43,0,0,1-51.42-36.78H1651a17.6,17.6,0,0,0,17.85-17.5c0-58.2-46.42-89.62-89.62-89.62a89.62,89.62,0,0,0,0,179.24C1592.47,488.22,1610.68,488.57,1634.24,472.86Zm-55-128.54c21.42,0,44.27,11.43,51.77,36.42H1527.84A54.59,54.59,0,0,1,1579.26,344.32Z"/><path class="cls-5" d="M1833.26,488.14a16.75,16.75,0,0,0,11.16-4.32,17.68,17.68,0,0,0,2.52-24.84l-65.51-78.82,63-41.39a17.77,17.77,0,1,0-22.68-27.35L1740,365V236.92c0-9.72-8.28-17.64-18-17.64a17.66,17.66,0,0,0-17.64,17.64V470.15a17.74,17.74,0,0,0,17.64,18,18,18,0,0,0,18-18v-63l11.16-7.56,68.39,82.06A16.72,16.72,0,0,0,1833.26,488.14Z"/><path class="cls-5" d="M2029.46,472.86c8.21-5.36,12.85-14.64,8.57-23.57-4.28-8.57-15.35-13.57-23.57-8.21-17.14,11.07-31.78,11.78-40,11.78a54.43,54.43,0,0,1-51.42-36.78h123.18a17.6,17.6,0,0,0,17.85-17.5c0-58.2-46.42-89.62-89.62-89.62a89.62,89.62,0,0,0,0,179.24C1987.69,488.22,2005.9,488.57,2029.46,472.86Zm-55-128.54c21.42,0,44.27,11.43,51.77,36.42H1923.06A54.59,54.59,0,0,1,1974.48,344.32Z"/></g></g></svg>