<svg xmlns="http://www.w3.org/2000/svg" xmlns:xlink="http://www.w3.org/1999/xlink" viewBox="0 0 695.41 771.33"><defs><style>.cls-1{fill:url(#linear-gradient);}.cls-2{fill:url(#linear-gradient-2);}.cls-3{fill:#fff;}</style><linearGradient id="linear-gradient" y1="205.61" x2="695.41" y2="205.61" gradientUnits="userSpaceOnUse"><stop offset="0" stop-color="#15a7f3"/><stop offset="1" stop-color="#00fece"/></linearGradient><linearGradient id="linear-gradient-2" y1="503.36" x2="695.41" y2="503.36" xlink:href="#linear-gradient"/></defs><title>solo logo</title><g id="Capa_2" data-name="Capa 2"><g id="Capa_1-2" data-name="Capa 1"><path class="cls-1" d="M167.55,145.22c4.8-13.44,14.4-25,28.81-29.77a38.53,38.53,0,0,1,14.4-2.88h10.56a.94.94,0,0,0,1,1h1.92c1,0,1,0,1.92,1h1.92c1,1,1,1,1.92,1a45.31,45.31,0,0,1,27.85,29.77l99.87,266L442.09,187l-10.26-5.93L154.4,20.89C130.93,7.35,108.67.64,88.7,0,36.4-1.52,0,39.07,0,110V231.4L67.68,411.23Z"/><path class="cls-2" d="M631.78,296.5,525.92,235.39,403.8,561c-7.68,18.25-25.93,31.69-46.1,31.69A47.64,47.64,0,0,1,312.56,561L212.69,295,113.77,561c-7.68,18.25-25.93,31.69-46.1,31.69A47.64,47.64,0,0,1,22.54,561L0,500.93V661.27c0,27.41,5.43,50.28,15.12,68,24.94,45.55,78.09,56.51,139.28,21.19l128.25-74L317,656.52l40.13-23.17,246-142c31.17-18,62.07-33,80.77-65.08,7.66-13.13,11.46-26.85,11.47-40.57C695.42,353.35,674.25,321,631.78,296.5Z"/><path class="cls-3" d="M67.68,592.73c20.17,0,38.41-13.44,46.1-31.69l98.92-266,99.87,266a47.64,47.64,0,0,0,45.14,31.69c20.17,0,38.41-13.44,46.1-31.69L525.92,235.39,442.09,187,357.7,411.23l-99.87-266A45.31,45.31,0,0,0,230,115.44c-1,0-1,0-1.92-1h-1.92c-1-1-1-1-1.92-1h-1.92a.94.94,0,0,1-1-1H210.77a38.53,38.53,0,0,0-14.4,2.88c-14.4,4.8-24,16.33-28.81,29.77l-99.88,266L0,231.4V500.93L22.54,561A47.64,47.64,0,0,0,67.68,592.73Z"/></g></g></svg>