<svg xmlns="http://www.w3.org/2000/svg" xmlns:xlink="http://www.w3.org/1999/xlink" width="113" height="113" viewBox="0 0 113 113">
  <defs>
    <filter id="Ellipse_41" x="0" y="0" width="113" height="113" filterUnits="userSpaceOnUse">
      <feOffset dy="3" input="SourceAlpha"/>
      <feGaussianBlur stdDeviation="5.5" result="blur"/>
      <feFlood flood-opacity="0.161"/>
      <feComposite operator="in" in2="blur"/>
      <feComposite in="SourceGraphic"/>
    </filter>
  </defs>
  <g id="arrow-next" transform="translate(-1209.5 -1044.5)">
    <g transform="matrix(1, 0, 0, 1, 1209.5, 1044.5)" filter="url(#Ellipse_41)">
      <circle id="Ellipse_41-2" data-name="Ellipse 41" cx="40" cy="40" r="40" transform="translate(16.5 13.5)" fill="#2d2d2d"/>
    </g>
    <path id="arrow-left-solid" d="M9.643,52.985l-.836.836a.9.9,0,0,1-1.276,0L.215,46.508a.9.9,0,0,1,0-1.276l7.316-7.316a.9.9,0,0,1,1.276,0l.836.836a.9.9,0,0,1-.015,1.291L5.093,44.362H15.91a.9.9,0,0,1,.9.9v1.2a.9.9,0,0,1-.9.9H5.093l4.535,4.321A.9.9,0,0,1,9.643,52.985Z" transform="translate(1274.813 1144.086) rotate(180)" fill="#00fece"/>
  </g>
</svg>
